<?xml version="1.0" encoding="UTF-8" standalone="no"?>
<svg
   xmlns:dc="http://purl.org/dc/elements/1.1/"
   xmlns:cc="http://creativecommons.org/ns#"
   xmlns:rdf="http://www.w3.org/1999/02/22-rdf-syntax-ns#"
   xmlns:svg="http://www.w3.org/2000/svg"
   xmlns="http://www.w3.org/2000/svg"
   xmlns:sodipodi="http://sodipodi.sourceforge.net/DTD/sodipodi-0.dtd"
   xmlns:inkscape="http://www.inkscape.org/namespaces/inkscape"
   viewBox="0.0 0.0 348.0 348.0"
   fill="none"
   version="1.1"
   id="svg831"
   sodipodi:docname="Symbolic Tasha.svg"
   inkscape:version="0.92.4 (5da689c313, 2019-01-14)">
  <metadata
     id="metadata837">
    <rdf:RDF>
      <cc:Work
         rdf:about="">
        <dc:format>image/svg+xml</dc:format>
        <dc:type
           rdf:resource="http://purl.org/dc/dcmitype/StillImage" />
      </cc:Work>
    </rdf:RDF>
  </metadata>
  <defs
     id="defs835">
    <inkscape:path-effect
       effect="bspline"
       id="path-effect858"
       is_visible="true"
       weight="33.333333"
       steps="2"
       helper_size="0"
       apply_no_weight="true"
       apply_with_weight="true"
       only_selected="false" />
    <inkscape:path-effect
       effect="bspline"
       id="path-effect854"
       is_visible="true"
       weight="33.333333"
       steps="2"
       helper_size="0"
       apply_no_weight="true"
       apply_with_weight="true"
       only_selected="false" />
  </defs>
  <sodipodi:namedview
     pagecolor="#ffffff"
     bordercolor="#666666"
     borderopacity="1"
     objecttolerance="10"
     gridtolerance="10"
     guidetolerance="10"
     inkscape:pageopacity="0"
     inkscape:pageshadow="2"
     inkscape:window-width="1920"
     inkscape:window-height="1001"
     id="namedview833"
     showgrid="false"
     inkscape:zoom="2.7471504"
     inkscape:cx="192.50476"
     inkscape:cy="153.02155"
     inkscape:window-x="-9"
     inkscape:window-y="-9"
     inkscape:window-maximized="1"
     inkscape:current-layer="svg831" />
  <path
     d="M5.079 5.776h336.913v337.67H5.08z"
     id="path827"
     stroke-width="2"
     stroke="#000" />
  <path
     d="M282.734 40.554c0-8.376 6.966-15.165 15.56-15.165 4.126 0 8.084 1.597 11.001 4.441 2.918 2.844 4.558 6.702 4.558 10.724 0 8.376-6.966 15.165-15.56 15.165-8.593 0-15.559-6.79-15.559-15.165z"
     stroke-width="2"
     stroke="#000"
     id="path829" />
  <rect
     style="fill:#ffffff;fill-opacity:1;stroke:#000000;stroke-width:3.73718762;stroke-linecap:butt;stroke-miterlimit:4;stroke-dasharray:none;stroke-opacity:1"
     id="rect850"
     width="173.03955"
     height="173.03955"
     x="166.62425"
     y="-80.86322"
     transform="matrix(0.70710604,0.70710753,-0.70710604,0.70710753,0,0)" />
  <path
     style="fill:none;stroke:#000000;stroke-width:3.77952756;stroke-linecap:butt;stroke-linejoin:miter;stroke-opacity:1;stroke-miterlimit:4;stroke-dasharray:none"
     d="m 113.57223,120.85554 c 40.28415,41.25485 80.56832,82.50973 120.8525,123.76461"
     id="path852"
     inkscape:connector-curvature="0"
     inkscape:path-effect="#path-effect854"
     inkscape:original-d="m 113.57223,120.85554 c 40.28516,41.25387 80.56933,82.50874 120.8525,123.76461" />
  <path
     style="fill:none;stroke:#000000;stroke-width:3.77952756;stroke-linecap:butt;stroke-linejoin:miter;stroke-opacity:1;stroke-miterlimit:4;stroke-dasharray:none"
     d="m 117.21236,246.80423 c 40.77053,-39.7998 81.54005,-79.59862 122.30856,-119.39644"
     id="path856"
     inkscape:connector-curvature="0"
     inkscape:path-effect="#path-effect858"
     inkscape:original-d="M 117.21236,246.80423 C 157.98288,207.00442 198.7524,167.2056 239.52092,127.40779" />
  <path
     sodipodi:type="star"
     style="fill:none;fill-opacity:1;stroke:#000000;stroke-width:2.26771665;stroke-miterlimit:4;stroke-dasharray:none;stroke-dashoffset:0;stroke-opacity:1"
     id="path5399"
     sodipodi:sides="7"
     sodipodi:cx="112.48019"
     sodipodi:cy="182.72693"
     sodipodi:r1="22.445208"
     sodipodi:r2="15.871158"
     sodipodi:arg1="1.4243121"
     sodipodi:arg2="1.8731111"
     inkscape:flatsided="true"
     inkscape:rounded="-1.51"
     inkscape:randomized="0"
     d="m 115.75631,204.93176 c 29.09563,-4.2928 -40.090999,-25.87033 -18.593927,-5.79897 21.497067,20.07136 -4.770092,-47.47429 -7.059309,-18.15292 -2.289216,29.32138 34.142796,-33.32914 9.791114,-16.83734 -24.351679,16.49179 47.345452,5.91353 19.268632,-2.84292 -28.076835,-8.75644 24.89602,40.7032 14.23647,13.2923 -10.65956,-27.41091 -16.30062,44.84252 -1.51604,19.41813 14.78458,-25.4244 -45.222567,15.21451 -16.12694,10.92172 z" />
  <path
     sodipodi:type="star"
     style="fill:none;fill-opacity:1;stroke:#000000;stroke-width:2.26771665;stroke-miterlimit:4;stroke-dasharray:none;stroke-dashoffset:0;stroke-opacity:1"
     id="path5399-7"
     sodipodi:sides="7"
     sodipodi:cx="176.60539"
     sodipodi:cy="120.83371"
     sodipodi:r1="22.445208"
     sodipodi:r2="15.871158"
     sodipodi:arg1="1.4243121"
     sodipodi:arg2="1.8731111"
     inkscape:flatsided="true"
     inkscape:rounded="-1.51"
     inkscape:randomized="0"
     d="m 179.88152,143.03854 c 29.09562,-4.2928 -40.091,-25.87033 -18.59393,-5.79897 21.49707,20.07136 -4.77009,-47.474292 -7.05931,-18.15292 -2.28922,29.32138 34.14279,-33.329139 9.79111,-16.83734 -24.35167,16.4918 47.34546,5.91353 19.26863,-2.842915 -28.07683,-8.756441 24.89603,40.703195 14.23647,13.292295 -10.65955,-27.410904 -16.30062,44.84252 -1.51604,19.41813 14.78459,-25.4244 -45.22256,15.21452 -16.12693,10.92172 z" />
  <path
     sodipodi:type="star"
     style="fill:none;fill-opacity:1;stroke:#000000;stroke-width:2.26771665;stroke-miterlimit:4;stroke-dasharray:none;stroke-dashoffset:0;stroke-opacity:1"
     id="path5399-0"
     sodipodi:sides="7"
     sodipodi:cx="241.3998"
     sodipodi:cy="182.72693"
     sodipodi:r1="22.445208"
     sodipodi:r2="15.871158"
     sodipodi:arg1="1.4243121"
     sodipodi:arg2="1.8731111"
     inkscape:flatsided="true"
     inkscape:rounded="-1.51"
     inkscape:randomized="0"
     d="m 244.67592,204.93176 c 29.09563,-4.2928 -40.091,-25.87033 -18.59393,-5.79897 21.49707,20.07136 -4.77009,-47.47429 -7.05931,-18.15292 -2.28921,29.32138 34.1428,-33.32914 9.79112,-16.83734 -24.35168,16.49179 47.34545,5.91353 19.26862,-2.84292 -28.07683,-8.75644 24.89603,40.7032 14.23648,13.2923 -10.65956,-27.41091 -16.30062,44.84252 -1.51604,19.41813 14.78458,-25.4244 -45.22257,15.21451 -16.12694,10.92172 z" />
  <path
     sodipodi:type="star"
     style="fill:none;fill-opacity:1;stroke:#000000;stroke-width:2.26771665;stroke-miterlimit:4;stroke-dasharray:none;stroke-dashoffset:0;stroke-opacity:1"
     id="path5399-03"
     sodipodi:sides="7"
     sodipodi:cx="176.60539"
     sodipodi:cy="243.87029"
     sodipodi:r1="22.445208"
     sodipodi:r2="15.871158"
     sodipodi:arg1="1.4243121"
     sodipodi:arg2="1.8731111"
     inkscape:flatsided="true"
     inkscape:rounded="-1.51"
     inkscape:randomized="0"
     d="m 179.88152,266.07511 c 29.09562,-4.2928 -40.091,-25.87033 -18.59393,-5.79897 21.49707,20.07137 -4.77009,-47.47429 -7.05931,-18.15291 -2.28922,29.32138 34.14279,-33.32914 9.79111,-16.83735 -24.35167,16.4918 47.34546,5.91353 19.26863,-2.84291 -28.07683,-8.75644 24.89603,40.70319 14.23647,13.29229 -10.65955,-27.4109 -16.30062,44.84253 -1.51604,19.41813 14.78459,-25.42439 -45.22256,15.21452 -16.12693,10.92172 z" />
</svg>
